# Blender v2.78 (sub 0) OBJ File: 'snek.blend'
# www.blender.org
o tube_Cylinder
v -0.000064 -0.000775 -0.195459
v -0.050063 -0.000775 -0.182062
v -0.086666 -0.000775 -0.145459
v -0.100064 -0.000775 -0.095459
v -0.086666 -0.000775 -0.045459
v -0.050064 -0.000775 -0.008857
v -0.000064 -0.000775 0.004541
v 0.049936 -0.000775 -0.008857
v 0.086539 -0.000775 -0.045459
v 0.099937 -0.000775 -0.095459
v 0.086539 -0.000775 -0.145459
v 0.049937 -0.000775 -0.182062
v -0.000064 0.099225 -0.195459
v -0.050063 0.099225 -0.182062
v -0.086666 0.099225 -0.145459
v -0.100064 0.099225 -0.095459
v -0.086666 0.099225 -0.045459
v -0.050064 0.099225 -0.008857
v -0.000064 0.099225 0.004541
v 0.049936 0.099225 -0.008857
v 0.086539 0.099225 -0.045459
v 0.099937 0.099225 -0.095459
v 0.086539 0.099225 -0.145459
v 0.049937 0.099225 -0.182062
v -0.000064 0.199225 -0.195459
v -0.050063 0.199225 -0.182062
v -0.086666 0.199225 -0.145459
v -0.100064 0.199225 -0.095459
v -0.086666 0.199225 -0.045459
v -0.050064 0.199225 -0.008857
v -0.000064 0.199225 0.004541
v 0.049936 0.199225 -0.008857
v 0.086539 0.199225 -0.045459
v 0.099937 0.199225 -0.095459
v 0.086539 0.199225 -0.145459
v 0.049937 0.199225 -0.182062
v -0.000064 0.299225 -0.195459
v -0.050063 0.299225 -0.182062
v -0.086666 0.299225 -0.145459
v -0.100064 0.299225 -0.095459
v -0.086666 0.299225 -0.045459
v -0.050064 0.299225 -0.008857
v -0.000064 0.299225 0.004541
v 0.049936 0.299225 -0.008857
v 0.086539 0.299225 -0.045459
v 0.099937 0.299225 -0.095459
v 0.086539 0.299225 -0.145459
v 0.049937 0.299225 -0.182062
v -0.000064 0.399225 -0.195459
v -0.050063 0.399225 -0.182062
v -0.086666 0.399225 -0.145459
v -0.100064 0.399225 -0.095459
v -0.086666 0.399225 -0.045459
v -0.050064 0.399225 -0.008857
v -0.000064 0.399225 0.004541
v 0.049936 0.399225 -0.008857
v 0.086539 0.399225 -0.045459
v 0.099937 0.399225 -0.095459
v 0.086539 0.399225 -0.145459
v 0.049937 0.399225 -0.182062
vn -0.2588 0.0000 -0.9659
vn -0.9659 0.0000 0.2588
vn -0.7071 0.0000 -0.7071
vn 0.7071 0.0000 -0.7071
vn -0.2588 0.0000 0.9659
vn 0.7071 0.0000 0.7071
vn 0.2588 0.0000 0.9659
vn -0.7071 0.0000 0.7071
vn 0.9659 0.0000 0.2588
vn -0.9659 0.0000 -0.2588
vn 0.2588 0.0000 -0.9659
vn 0.9659 0.0000 -0.2588
s off
f 8//1 7//1 19//1 20//1
f 11//2 10//2 22//2 23//2
f 9//3 8//3 20//3 21//3
f 6//4 5//4 17//4 18//4
f 1//5 12//5 24//5 13//5
f 3//6 2//6 14//6 15//6
f 2//7 1//7 13//7 14//7
f 12//8 11//8 23//8 24//8
f 4//9 3//9 15//9 16//9
f 10//10 9//10 21//10 22//10
f 7//11 6//11 18//11 19//11
f 5//12 4//12 16//12 17//12
f 14//7 13//7 25//7 26//7
f 24//8 23//8 35//8 36//8
f 16//9 15//9 27//9 28//9
f 22//10 21//10 33//10 34//10
f 19//11 18//11 30//11 31//11
f 17//12 16//12 28//12 29//12
f 20//1 19//1 31//1 32//1
f 23//2 22//2 34//2 35//2
f 21//3 20//3 32//3 33//3
f 18//4 17//4 29//4 30//4
f 13//5 24//5 36//5 25//5
f 15//6 14//6 26//6 27//6
f 27//6 26//6 38//6 39//6
f 26//7 25//7 37//7 38//7
f 36//8 35//8 47//8 48//8
f 28//9 27//9 39//9 40//9
f 34//10 33//10 45//10 46//10
f 31//11 30//11 42//11 43//11
f 29//12 28//12 40//12 41//12
f 32//1 31//1 43//1 44//1
f 35//2 34//2 46//2 47//2
f 33//3 32//3 44//3 45//3
f 30//4 29//4 41//4 42//4
f 25//5 36//5 48//5 37//5
f 39//6 38//6 50//6 51//6
f 38//7 37//7 49//7 50//7
f 48//8 47//8 59//8 60//8
f 40//9 39//9 51//9 52//9
f 46//10 45//10 57//10 58//10
f 43//11 42//11 54//11 55//11
f 41//12 40//12 52//12 53//12
f 44//1 43//1 55//1 56//1
f 47//2 46//2 58//2 59//2
f 45//3 44//3 56//3 57//3
f 42//4 41//4 53//4 54//4
f 37//5 48//5 60//5 49//5
